<?xml version="1.0" standalone="no"?>
<!DOCTYPE svg PUBLIC "-//W3C//DTD SVG 20010904//EN"
 "http://www.w3.org/TR/2001/REC-SVG-20010904/DTD/svg10.dtd">
<svg version="1.0" xmlns="http://www.w3.org/2000/svg"
 width="700.000000pt" height="700.000000pt" viewBox="0 0 700.000000 700.000000"
 preserveAspectRatio="xMidYMid meet">
<metadata>
Created by potrace 1.11, written by Peter Selinger 2001-2013
</metadata>
<g transform="translate(0.000000,700.000000) scale(0.100000,-0.100000)"
fill="#000000" stroke="none">
<path d="M3248 6775 c-2 -2 -30 -6 -63 -9 -124 -12 -291 -38 -395 -62 -36 -9
-74 -17 -85 -20 -195 -40 -532 -172 -767 -299 -117 -64 -380 -233 -423 -272
-11 -10 -38 -31 -60 -48 -62 -46 -200 -171 -298 -270 -291 -295 -546 -682
-697 -1060 -33 -80 -89 -237 -96 -265 -2 -8 -10 -40 -19 -70 -9 -30 -17 -62
-19 -70 -2 -8 -9 -33 -15 -56 -13 -49 -57 -282 -65 -344 -28 -220 -29 -667 -2
-840 2 -14 7 -47 11 -75 3 -27 13 -81 20 -120 8 -38 16 -82 19 -96 2 -14 16
-70 30 -125 267 -1009 990 -1830 1957 -2219 190 -77 475 -160 624 -182 17 -2
55 -8 85 -14 30 -5 75 -12 100 -15 25 -3 79 -9 120 -13 78 -9 563 -7 615 3 17
3 50 7 75 10 39 4 125 17 212 32 16 2 58 11 95 20 38 9 75 17 83 19 8 2 56 15
105 29 596 168 1149 517 1566 988 81 91 191 235 263 343 37 55 71 105 76 112
6 7 10 15 10 18 0 3 10 22 23 43 84 134 212 413 274 597 53 155 105 363 129
509 3 21 7 47 9 57 2 10 7 49 10 86 4 37 11 91 15 118 8 53 6 576 -3 610 -2
11 -8 47 -11 80 -8 73 -22 158 -40 251 -83 425 -284 884 -549 1254 -155 216
-393 471 -582 623 -376 302 -767 506 -1198 627 -43 12 -86 23 -95 25 -28 6
-165 36 -187 41 -38 8 -140 23 -200 30 -33 3 -73 8 -90 11 -33 6 -561 13 -567
8z m397 -329 c154 -6 183 -9 330 -32 712 -114 1367 -496 1824 -1064 256 -319
439 -674 544 -1055 28 -102 64 -260 72 -320 3 -23 7 -51 10 -63 2 -12 7 -54
10 -94 4 -40 9 -89 11 -108 5 -49 4 -376 -1 -425 -2 -22 -7 -67 -10 -100 -5
-50 -22 -167 -41 -276 -3 -14 -14 -61 -24 -105 -11 -43 -22 -88 -25 -98 -28
-116 -125 -366 -203 -521 -417 -834 -1191 -1416 -2112 -1590 -14 -3 -36 -7
-50 -10 -14 -2 -47 -7 -75 -10 -27 -3 -66 -8 -86 -10 -98 -14 -459 -22 -534
-11 -16 2 -61 7 -100 10 -533 50 -1087 279 -1531 633 -97 78 -333 304 -391
375 -12 14 -41 51 -65 80 -161 198 -331 484 -430 728 -68 166 -151 448 -173
590 -4 25 -9 52 -10 60 -7 40 -15 101 -21 160 -3 36 -8 74 -10 85 -5 23 -5
396 0 440 2 17 6 62 10 100 10 93 43 287 60 353 8 28 13 52 11 52 -2 0 5 26
16 58 11 31 19 58 19 60 -2 10 40 134 81 238 95 241 214 457 381 689 54 76
196 236 297 335 321 319 680 542 1107 690 108 38 270 84 332 95 18 3 63 12
100 19 37 8 94 17 127 21 32 4 68 9 80 11 11 2 81 7 155 10 74 4 136 8 138 9
2 2 11 1 20 -1 9 -1 80 -5 157 -8z"/>
<path d="M2554 4948 c0 -159 -2 -192 -14 -199 -8 -4 -49 -14 -90 -23 -235 -52
-429 -256 -480 -505 -17 -86 -20 -233 -5 -316 22 -128 91 -258 187 -356 112
-112 228 -178 518 -295 216 -86 290 -132 349 -217 91 -132 84 -326 -15 -436
-75 -83 -170 -120 -320 -122 -174 -3 -303 75 -368 223 -21 47 -48 154 -45 176
1 4 1 21 0 37 l-1 30 -192 -2 c-106 -1 -201 -2 -210 -2 -15 -1 -17 -9 -13 -58
14 -166 32 -240 92 -362 54 -111 149 -213 253 -275 73 -43 218 -94 288 -103
26 -3 51 -9 57 -14 5 -5 9 -67 10 -137 l0 -127 148 -3 147 -3 0 136 c0 132 0
135 23 139 233 44 353 107 466 242 111 133 155 271 153 485 -2 155 -28 244
-107 369 -106 167 -253 266 -593 398 -314 123 -417 220 -426 400 -11 230 98
366 305 379 80 6 189 -11 189 -29 0 -4 6 -8 13 -8 18 0 90 -70 120 -117 38
-60 67 -154 75 -242 l7 -76 206 -1 206 -1 -3 31 c-1 17 -5 58 -8 91 -6 70 -30
190 -47 231 -54 133 -95 197 -175 278 -90 90 -223 159 -352 181 l-42 7 0 194
0 194 -153 0 -154 0 1 -192z"/>
<path d="M5140 3365 c0 -757 3 -955 13 -956 81 -6 257 -2 260 6 2 6 3 435 2
955 l0 945 -138 3 -137 3 0 -956z"/>
<path d="M4598 4036 c0 -6 -2 -314 -3 -683 l-1 -673 137 0 138 0 0 673 c0 370
-3 677 -7 683 -9 15 -261 15 -264 0z"/>
<path d="M4049 3770 c-1 -7 -1 -726 0 -776 l1 -41 135 0 135 -1 0 412 0 411
-135 0 c-74 0 -135 -2 -136 -5z"/>
</g>
</svg>
